#N canvas 520 50 687 384 10;
#X obj 50 215 makenote 60 80 250;
#X obj 50 244 noteout 16;
#X obj 15 40 metro 250;
#X obj 15 63 t b b b;
#X obj 23 15 tgl 15 0 empty empty empty 17 7 0 10 -262144 -1 -1 1 1
;
#X obj 108 63 +~ 1;
#X obj 111 86 /~ 2;
#X obj 108 17 osc~ 0.3;
#X obj 16 107 snapshot~;
#X obj 16 132 * 60;
#X obj 22 164 + 40;
#X obj 202 60 noise~;
#X obj 148 87 +~ 1;
#X obj 151 110 /~ 2;
#X obj 148 63 *~ -1;
#X obj 85 131 snapshot~;
#X obj 85 156 * 60;
#X obj 91 188 + 40;
#X obj 203 89 snapshot~;
#X obj 203 114 + 1;
#X obj 201 138 / 2;
#X obj 209 188 * 3000;
#X text 231 18 be sure to set midi output;
#X text 291 62 challenge: insert random rest.;
#X text 292 92 challenge: create multiple outputs and make an algorithmic
sequence;
#X obj 133 168 * 1000;
#X connect 0 0 1 0;
#X connect 0 1 1 1;
#X connect 2 0 3 0;
#X connect 2 0 18 0;
#X connect 3 0 8 0;
#X connect 3 1 15 0;
#X connect 4 0 2 0;
#X connect 5 0 6 0;
#X connect 6 0 8 0;
#X connect 7 0 5 0;
#X connect 7 0 14 0;
#X connect 8 0 9 0;
#X connect 9 0 10 0;
#X connect 10 0 0 0;
#X connect 11 0 18 0;
#X connect 12 0 13 0;
#X connect 13 0 15 0;
#X connect 14 0 12 0;
#X connect 15 0 16 0;
#X connect 15 0 25 0;
#X connect 16 0 17 0;
#X connect 17 0 0 1;
#X connect 18 0 19 0;
#X connect 19 0 20 0;
#X connect 20 0 21 0;
#X connect 21 0 7 0;
#X connect 25 0 0 2;
