#N canvas 4 0 1230 865 10;
#X obj 220 315 osc~ 70;
#X obj 220 344 *~;
#X obj 348 202 vsl 15 128 0 1 0 0 empty empty empty 0 -9 0 10 -262144
-1 -1 0 1;
#X floatatom 220 289 5 0 0 0 - - -, f 5;
#X obj 347 65 bng 22 250 50 0 empty empty empty 17 7 0 10 -204800 -1
-1;
#X obj 220 212 random 12;
#X obj 220 264 mtof;
#X obj 220 177 bng 22 250 50 0 empty empty empty 17 7 0 10 -204800
-1 -1;
#X obj 220 238 + 40;
#X obj 220 101 tgl 22 0 empty empty empty 17 7 0 10 -4034 -1 -1 0 1
;
#X obj 220 133 metro 500;
#X obj 279 316 osc~ 40;
#X floatatom 278 291 5 0 0 0 - - -, f 5;
#X obj 220 368 *~;
#X obj 240 608 dac~;
#X obj 348 175 line;
#X msg 395 146 0.7 50;
#X text 346 132 attack;
#X text 394 132 decay;
#X text 450 132 release;
#X msg 452 147 0 100;
#X obj 347 93 t b b b;
#X obj 395 116 delay 50;
#X obj 220 154 trigger b b b;
#X obj 452 116 delay 300;
#X obj 536 316 osc~ 70;
#X obj 536 345 *~;
#X obj 664 203 vsl 15 128 0 1 0 0 empty empty empty 0 -9 0 10 -262144
-1 -1 0 1;
#X floatatom 536 290 5 0 0 0 - - -, f 5;
#X obj 663 66 bng 22 250 50 0 empty empty empty 17 7 0 10 -204800 -1
-1;
#X obj 536 213 random 12;
#X obj 536 265 mtof;
#X obj 536 178 bng 22 250 50 0 empty empty empty 17 7 0 10 -204800
-1 -1;
#X obj 536 102 tgl 22 0 empty empty empty 17 7 0 10 -4034 -1 -1 0 1
;
#X obj 595 317 osc~ 40;
#X floatatom 594 292 5 0 0 0 - - -, f 5;
#X obj 536 369 *~;
#X obj 664 176 line;
#X msg 711 147 0.7 50;
#X text 662 133 attack;
#X text 710 133 decay;
#X text 766 133 release;
#X msg 768 148 0 100;
#X obj 663 94 t b b b;
#X obj 711 117 delay 50;
#X obj 536 155 trigger b b b;
#X obj 768 117 delay 300;
#X obj 856 310 osc~ 70;
#X obj 856 339 *~;
#X obj 984 197 vsl 15 128 0 1 0 0 empty empty empty 0 -9 0 10 -262144
-1 -1 0 1;
#X floatatom 856 284 5 0 0 0 - - -, f 5;
#X obj 983 60 bng 22 250 50 0 empty empty empty 17 7 0 10 -204800 -1
-1;
#X obj 856 207 random 12;
#X obj 856 259 mtof;
#X obj 856 172 bng 22 250 50 0 empty empty empty 17 7 0 10 -204800
-1 -1;
#X obj 856 96 tgl 22 0 empty empty empty 17 7 0 10 -4034 -1 -1 0 1
;
#X obj 915 311 osc~ 40;
#X floatatom 914 286 5 0 0 0 - - -, f 5;
#X obj 856 363 *~;
#X obj 984 170 line;
#X msg 984 141 0.8 50;
#X msg 1031 141 0.7 50;
#X text 982 127 attack;
#X text 1030 127 decay;
#X text 1086 127 release;
#X obj 983 88 t b b b;
#X obj 1031 111 delay 50;
#X obj 856 149 trigger b b b;
#X obj 1088 111 delay 300;
#X obj 220 28 tgl 15 0 empty empty empty 17 7 0 10 -262144 -1 -1 0
1;
#X obj 241 476 +~;
#X obj 242 502 *~ 0.33;
#X obj 536 239 + 80;
#X obj 856 233 + 60;
#X msg 348 146 0.8 10;
#X msg 664 147 0.8 100;
#X msg 1088 142 0 5;
#X obj 252 413 *~ 2000;
#X obj 264 268 * 300;
#X obj 580 269 * 600;
#X obj 900 263 * 1000;
#X obj 536 134 metro 100;
#X obj 856 128 metro 1000;
#X connect 0 0 1 0;
#X connect 1 0 13 0;
#X connect 2 0 13 1;
#X connect 3 0 0 0;
#X connect 4 0 21 0;
#X connect 5 0 8 0;
#X connect 6 0 3 0;
#X connect 7 0 5 0;
#X connect 8 0 6 0;
#X connect 9 0 10 0;
#X connect 10 0 23 0;
#X connect 11 0 1 1;
#X connect 12 0 11 0;
#X connect 13 0 77 0;
#X connect 15 0 2 0;
#X connect 15 0 79 0;
#X connect 16 0 15 0;
#X connect 20 0 15 0;
#X connect 21 0 24 0;
#X connect 21 1 22 0;
#X connect 21 2 74 0;
#X connect 22 0 16 0;
#X connect 23 0 4 0;
#X connect 23 1 7 0;
#X connect 24 0 20 0;
#X connect 25 0 26 0;
#X connect 26 0 36 0;
#X connect 27 0 36 1;
#X connect 28 0 25 0;
#X connect 29 0 43 0;
#X connect 30 0 72 0;
#X connect 31 0 28 0;
#X connect 32 0 30 0;
#X connect 33 0 81 0;
#X connect 34 0 26 1;
#X connect 35 0 34 0;
#X connect 36 0 70 0;
#X connect 37 0 27 0;
#X connect 37 0 80 0;
#X connect 38 0 37 0;
#X connect 42 0 37 0;
#X connect 43 0 46 0;
#X connect 43 1 44 0;
#X connect 43 2 75 0;
#X connect 44 0 38 0;
#X connect 45 0 29 0;
#X connect 45 1 32 0;
#X connect 46 0 42 0;
#X connect 47 0 48 0;
#X connect 48 0 58 0;
#X connect 49 0 58 1;
#X connect 50 0 47 0;
#X connect 51 0 65 0;
#X connect 52 0 73 0;
#X connect 53 0 50 0;
#X connect 54 0 52 0;
#X connect 55 0 82 0;
#X connect 56 0 48 1;
#X connect 57 0 56 0;
#X connect 58 0 70 1;
#X connect 59 0 49 0;
#X connect 59 0 78 0;
#X connect 60 0 59 0;
#X connect 61 0 59 0;
#X connect 65 0 68 0;
#X connect 65 1 66 0;
#X connect 65 2 60 0;
#X connect 66 0 61 0;
#X connect 67 0 51 0;
#X connect 67 1 54 0;
#X connect 68 0 76 0;
#X connect 69 0 9 0;
#X connect 69 0 33 0;
#X connect 69 0 55 0;
#X connect 70 0 71 0;
#X connect 71 0 14 0;
#X connect 71 0 14 1;
#X connect 72 0 31 0;
#X connect 73 0 53 0;
#X connect 74 0 15 0;
#X connect 75 0 37 0;
#X connect 76 0 59 0;
#X connect 77 0 25 0;
#X connect 78 0 12 0;
#X connect 79 0 35 0;
#X connect 80 0 57 0;
#X connect 81 0 45 0;
#X connect 82 0 67 0;
