#N canvas 18 62 1422 816 10;
#X obj 10 68 bng 30 250 50 0 empty empty sample1_load 0 -9 0 10 -4034
-1 -1;
#X obj 10 111 openpanel;
#X msg 389 125 \; pd dsp 0;
#X msg 448 125 \; pd dsp 1;
#X obj 10 159 soundfiler;
#X msg 10 135 read -resize \$1 sample1;
#N canvas 0 22 450 278 (subpatch) 0;
#X array sample1 4e+06 float 2;
#X coords 0 1 4e+06 -1 200 140 1;
#X restore 532 36 graph;
#N canvas 0 22 450 278 (subpatch) 0;
#X array sample2 4e+06 float 2;
#X coords 0 1 4e+06 -1 200 140 1 0 0;
#X restore 744 36 graph;
#X obj 11 236 phasor~;
#X obj 85 168 hsl 64 8 0 1 0 0 empty empty Speed -2 -8 0 10 -262144
-1 -1 5205 1;
#X obj 10 191 f;
#X obj 84 178 t b f;
#X obj 11 323 *~;
#X floatatom 66 237 20 0 0 0 - - -, f 20;
#X obj 55 195 bng 8 250 50 0 empty empty empty 17 7 0 10 -262144 -1
-1;
#X obj 12 399 dac~ 1 2;
#X obj 12 261 *~;
#X obj 95 396 osc~ 5000;
#X obj 164 135 +~ 1;
#X obj 165 156 /~ 2;
#X obj 167 179 snapshot~ 100;
#X obj 200 136 tgl 8 0 empty empty empty 17 7 0 10 -262144 -1 -1 0
1;
#X obj 11 213 expr 44100 / $f1 * $f2;
#X obj 96 352 osc~;
#X obj 96 375 *~ 2000;
#X obj 95 470 *~;
#X obj 276 713 dac~;
#X obj 95 447 osc~ 5000;
#X obj 95 423 *~ 2000;
#X obj 96 329 *~ 1000;
#X obj 11 301 tabread4~ sample1;
#X obj 292 656 *~;
#X obj 290 540 *~;
#X obj 294 623 tabread4~ sample2;
#X obj 207 322 bng 30 250 50 0 empty empty sample2_load -8 -9 0 10
-4034 -1 -1;
#X obj 207 358 openpanel;
#X obj 207 406 soundfiler;
#X msg 207 382 read -resize \$1 sample2;
#X obj 290 563 phasor~;
#X obj 293 593 *~;
#X obj 200 154 metro 10;
#X obj 453 458 snapshot~;
#X obj 456 428 metro 1000;
#X obj 452 477 + 1;
#X obj 452 499 / 2;
#X obj 307 324 +~ 1;
#X obj 307 344 /~ 2;
#X obj 165 464 phasor~ 0.5;
#X obj 307 300 osc~ 0.02;
#X floatatom 165 440 5 0 0 0 - - -, f 5;
#X obj 282 690 *~;
#X obj 437 620 +~ 1;
#X obj 436 639 /~ 2;
#X obj 410 599 osc~ 0.04;
#X obj 40 261 +~ 1;
#X obj 40 281 /~ 2;
#X obj 76 262 osc~ 1;
#X obj 284 198 hradio 15 1 0 16 empty empty sequencer 0 -8 0 10 -262144
-1 -1 1;
#X obj 284 140 i 0;
#X obj 285 46 tgl 45 0 empty empty start -7 -7 0 15 -257985 -1 -159808
0 1;
#X obj 284 273 unpack f f f f f;
#X msg 284 246 0.4 0.2 300 0.03 0.01;
#X msg 449 246 0.6 0.9 1000 0.9 0.1;
#X msg 599 246 0.4 0.2 300 0.03 0.01;
#X obj 284 217 sel 0 1 2 3 4 5 6 7 8 9 10 11 12 13 14 15;
#X obj 308 140 + 1;
#X obj 284 163 mod 16;
#X obj 285 115 metro 5000;
#X msg 756 246 40 80 20 0.6 0.003;
#X msg 1032 246 0.4 0.2 300 0.03 0.01;
#X msg 882 246 1000 3.3 20 2.5 0.9;
#X msg 1189 246 0.3 80 0.9 1.3 0.2;
#X obj 452 525 * 10000;
#X obj 285 95 t f f b;
#X text 978 43 Instructions:;
#X text 978 59 1 Click "sample 1_load" to load first sample.;
#X text 979 75 2 Click "sample 2_load" to load second sample.;
#X text 979 91 3 Click "Start". To stop click \; pd dsp 0;
#X text 542 199 16-step sequencer that triggers parameter changes.
A "score".;
#X text 410 98 on/off;
#X obj 94 492 *~ 0.3;
#X text 11 511 This stuff is a wild FM synth that uses the samples
to drive it \, but is also Amplitude Modulated \, and other things.
;
#X text 719 385 Other stuff is sample reading \, playback \, and various
audio-rate modifications of parameters.;
#X connect 0 0 1 0;
#X connect 1 0 5 0;
#X connect 4 0 16 1;
#X connect 4 0 10 0;
#X connect 5 0 4 0;
#X connect 8 0 16 0;
#X connect 9 0 11 0;
#X connect 10 0 22 0;
#X connect 11 0 10 0;
#X connect 11 1 22 1;
#X connect 12 0 15 0;
#X connect 12 0 15 1;
#X connect 13 0 32 0;
#X connect 14 0 10 0;
#X connect 16 0 30 0;
#X connect 17 0 18 0;
#X connect 17 0 28 0;
#X connect 18 0 19 0;
#X connect 19 0 20 0;
#X connect 20 0 9 0;
#X connect 21 0 40 0;
#X connect 21 0 42 0;
#X connect 22 0 8 0;
#X connect 22 0 13 0;
#X connect 23 0 24 0;
#X connect 24 0 17 0;
#X connect 25 0 80 0;
#X connect 27 0 25 0;
#X connect 28 0 27 0;
#X connect 29 0 23 0;
#X connect 30 0 12 0;
#X connect 30 0 29 0;
#X connect 31 0 26 0;
#X connect 31 0 26 1;
#X connect 32 0 38 0;
#X connect 33 0 31 0;
#X connect 33 0 41 0;
#X connect 34 0 35 0;
#X connect 35 0 37 0;
#X connect 36 0 32 1;
#X connect 36 0 39 1;
#X connect 37 0 36 0;
#X connect 38 0 39 0;
#X connect 39 0 33 0;
#X connect 40 0 20 0;
#X connect 41 0 43 0;
#X connect 42 0 41 0;
#X connect 43 0 44 0;
#X connect 44 0 72 0;
#X connect 45 0 46 0;
#X connect 46 0 31 1;
#X connect 47 0 25 1;
#X connect 48 0 45 0;
#X connect 49 0 47 0;
#X connect 50 0 26 0;
#X connect 50 0 26 1;
#X connect 51 0 52 0;
#X connect 52 0 50 1;
#X connect 53 0 51 0;
#X connect 54 0 55 0;
#X connect 55 0 12 1;
#X connect 56 0 54 0;
#X connect 57 0 64 0;
#X connect 58 0 65 0;
#X connect 58 0 66 0;
#X connect 59 0 73 0;
#X connect 60 0 49 0;
#X connect 60 1 48 0;
#X connect 60 2 40 1;
#X connect 60 3 53 0;
#X connect 60 4 56 0;
#X connect 61 0 60 0;
#X connect 62 0 60 0;
#X connect 63 0 60 0;
#X connect 64 0 61 0;
#X connect 64 1 62 0;
#X connect 64 2 63 0;
#X connect 64 4 68 0;
#X connect 64 9 70 0;
#X connect 64 12 69 0;
#X connect 64 15 71 0;
#X connect 65 0 58 1;
#X connect 66 0 57 0;
#X connect 67 0 58 0;
#X connect 68 0 60 0;
#X connect 69 0 60 0;
#X connect 70 0 60 0;
#X connect 71 0 60 0;
#X connect 72 0 42 1;
#X connect 72 0 67 1;
#X connect 73 0 67 0;
#X connect 73 1 21 0;
#X connect 73 2 3 0;
#X connect 80 0 50 0;
